<?xml version="1.0" encoding="UTF-8" standalone="no"?>
<svg
   width="40"
   height="40"
   viewBox="0 0 10.583333 10.583334"
   version="1.1"
   id="svg8"
   inkscape:version="1.2.1 (9c6d41e410, 2022-07-14, custom)"
   sodipodi:docname="mute.svg"
   inkscape:export-filename="../res/img/unmute.png"
   inkscape:export-xdpi="96"
   inkscape:export-ydpi="96"
   xmlns:inkscape="http://www.inkscape.org/namespaces/inkscape"
   xmlns:sodipodi="http://sodipodi.sourceforge.net/DTD/sodipodi-0.dtd"
   xmlns="http://www.w3.org/2000/svg"
   xmlns:svg="http://www.w3.org/2000/svg"
   xmlns:rdf="http://www.w3.org/1999/02/22-rdf-syntax-ns#"
   xmlns:cc="http://creativecommons.org/ns#"
   xmlns:dc="http://purl.org/dc/elements/1.1/">
  <defs
     id="defs2" />
  <sodipodi:namedview
     id="base"
     pagecolor="#4e4e4e"
     bordercolor="#666666"
     borderopacity="1.0"
     inkscape:pageopacity="0"
     inkscape:pageshadow="2"
     inkscape:zoom="15.734375"
     inkscape:cx="15.030785"
     inkscape:cy="19.797418"
     inkscape:document-units="mm"
     inkscape:current-layer="layer4"
     inkscape:document-rotation="0"
     showgrid="true"
     units="px"
     inkscape:window-width="1910"
     inkscape:window-height="1046"
     inkscape:window-x="0"
     inkscape:window-y="0"
     inkscape:window-maximized="1"
     showguides="true"
     guidetolerance="1"
     gridtolerance="1"
     objecttolerance="1"
     inkscape:showpageshadow="0"
     inkscape:pagecheckerboard="0"
     inkscape:deskcolor="#d1d1d1">
    <inkscape:grid
       type="xygrid"
       id="grid46" />
  </sodipodi:namedview>
  <metadata
     id="metadata5">
    <rdf:RDF>
      <cc:Work
         rdf:about="">
        <dc:format>image/svg+xml</dc:format>
        <dc:type
           rdf:resource="http://purl.org/dc/dcmitype/StillImage" />
      </cc:Work>
    </rdf:RDF>
  </metadata>
  <g
     inkscape:groupmode="layer"
     id="layer5"
     inkscape:label="UnMute"
     style="display:none;opacity:0.5;fill:#ffffff">
    <circle
       id="path174"
       style="fill:#ffffff;stroke:#000000;stroke-width:0.264583"
       cx="8.9193287"
       cy="8.2624712"
       r="0.0021789724" />
    <circle
       id="path176"
       style="fill:#ffffff;stroke:#000000;stroke-width:0.264583"
       cx="8.4375868"
       cy="5.9068255"
       r="0.0021789724" />
    <path
       id="path1247-7-1-3"
       style="display:inline;opacity:0.999904;fill:#ffffff;fill-opacity:1;stroke-width:0.218042"
       inkscape:transform-center-x="0.77388414"
       inkscape:transform-center-y="0.0013624308"
       d="m 6.1976721,2.5236334 a 0.68416543,0.68416543 0 0 1 0.6841656,0.6841653 0.68416543,0.68416543 0 0 1 -0.074831,0.3109035 c 0.02567,-0.034881 0.05316,-0.068621 0.07216,-0.1086832 l -0.0027,3.8225963 c -0.01341,-0.03525 -0.03581,-0.064332 -0.05434,-0.096211 a 0.68416543,0.68416543 0 0 1 0.03742,0.2218192 0.68416543,0.68416543 0 0 1 -0.6841659,0.6841654 0.68416543,0.68416543 0 0 1 -0.546976,-0.2743784 c 0.016351,0.034131 0.027897,0.070318 0.049887,0.101556 L 3.0583501,5.9195174 c 0.09011,0.042035 0.188307,0.063924 0.287742,0.064141 0.300157,0 0.552785,-0.194338 0.6449679,-0.4632367 A 0.68416543,0.68416543 0 0 1 3.3496551,5.9667315 0.68416543,0.68416543 0 0 1 2.6654891,5.2825661 0.68416543,0.68416543 0 0 1 3.1269451,4.6358157 l 2.572747,-1.9081798 c -0.00536,0.00773 -0.00745,0.017028 -0.012467,0.024943 a 0.68416543,0.68416543 0 0 1 0.510447,-0.2289455 z" />
  </g>
  <g
     inkscape:groupmode="layer"
     id="layer4"
     inkscape:label="Mute"
     style="display:inline;fill:#ffffff">
    <path
       id="path1247-7-1"
       style="display:inline;opacity:0.999904;fill:#ffffff;fill-opacity:1;stroke-width:0.218042"
       inkscape:transform-center-x="0.77388414"
       inkscape:transform-center-y="0.0013624308"
       d="M 6.1753621,2.5286992 A 0.68416543,0.68416543 0 0 1 6.8595275,3.2128645 0.68416543,0.68416543 0 0 1 6.7846965,3.523768 C 6.8103715,3.488887 6.8378615,3.455147 6.8568555,3.4150848 L 6.8541855,7.237681 C 6.8407745,7.202431 6.8183735,7.173349 6.7998445,7.14147 A 0.68416543,0.68416543 0 0 1 6.8372612,7.3632893 0.68416543,0.68416543 0 0 1 6.1530956,8.0474547 0.68416543,0.68416543 0 0 1 5.6061195,7.7730763 c 0.016351,0.034131 0.027897,0.070318 0.049887,0.101556 L 3.0360401,5.9245831 c 0.09011,0.042035 0.188307,0.063924 0.287742,0.064141 0.300157,0 0.552785,-0.194338 0.6449679,-0.4632367 A 0.68416543,0.68416543 0 0 1 3.3273451,5.9717972 0.68416543,0.68416543 0 0 1 2.6431791,5.2876318 0.68416543,0.68416543 0 0 1 3.1046351,4.6408815 l 2.572747,-1.9081798 c -0.00536,0.00773 -0.00745,0.017028 -0.012467,0.024943 a 0.68416543,0.68416543 0 0 1 0.510447,-0.2289455 z" />
  </g>
</svg>
